<svg width="70" height="37" viewBox="0 0 70 37" fill="none" xmlns="http://www.w3.org/2000/svg">
<path d="M22 22.2353C22 25.2605 21.4302 27.7941 20.2905 29.8361C19.1509 31.8782 17.491 33.416 15.3108 34.4496C13.1554 35.4832 10.5541 36 7.50676 36H0V9H8.32432C11.0991 9 13.5023 9.5042 15.5338 10.5126C17.5901 11.521 19.1757 13.0084 20.2905 14.9748C21.4302 16.916 22 19.3361 22 22.2353ZM16.1655 22.3866C16.1655 20.395 15.8806 18.7563 15.3108 17.4706C14.741 16.1849 13.8863 15.2395 12.7466 14.6345C11.6318 14.0042 10.2568 13.6891 8.62162 13.6891H5.61149V31.2731H8.02703C10.777 31.2731 12.8209 30.5294 14.1588 29.042C15.4966 27.5546 16.1655 25.3361 16.1655 22.3866Z" fill="#B4EC62"/>
<path d="M59.9221 37H52.0779V6.52941H42V0H70V6.52941H59.9221V37Z" fill="#B4EC62"/>
<path d="M31.1197 22.2033L22.4437 9H30.7746L36 17.6044L41.2746 9H49.6056L40.831 22.2033L50 36H41.669L36 26.7527L30.331 36H22L31.1197 22.2033Z" fill="#B4EC62"/>
<path d="M3.0967 6.90476L1.33302 1.57143H1.292C1.29884 1.69841 1.30909 1.88889 1.32276 2.14286C1.33643 2.39683 1.35011 2.66984 1.36378 2.9619C1.37745 3.24762 1.38429 3.50794 1.38429 3.74286V6.90476H0V0.104762H2.11232L3.84524 5.30476H3.876L5.71146 0.104762H7.82378V6.90476H6.37797V3.68571C6.37797 3.46984 6.38138 3.22222 6.38822 2.94286C6.40189 2.66349 6.41215 2.4 6.41898 2.15238C6.43265 1.89841 6.44291 1.70794 6.44974 1.58095H6.40873L4.522 6.90476H3.0967Z" fill="#060D5A"/>
<path d="M15.6307 4.50476C15.6307 4.9746 15.5179 5.4 15.2923 5.78095C15.0736 6.15556 14.7386 6.45397 14.2875 6.67619C13.8431 6.89206 13.2792 7 12.5956 7C11.6248 7 10.8866 6.77143 10.3807 6.31429C9.87484 5.85079 9.6219 5.24127 9.6219 4.48571V0.104762H11.1703V4.26667C11.1703 4.8254 11.2933 5.21905 11.5394 5.44762C11.7855 5.67619 12.1512 5.79048 12.6366 5.79048C12.9784 5.79048 13.2552 5.73651 13.4671 5.62857C13.6791 5.52063 13.8329 5.35238 13.9286 5.12381C14.0311 4.89524 14.0824 4.60635 14.0824 4.25714V0.104762H15.6307V4.50476Z" fill="#060D5A"/>
<path d="M23.9145 6.90476H21.9457L18.7567 1.7619H18.7157C18.7226 1.92063 18.7294 2.08254 18.7362 2.24762C18.7431 2.40635 18.7499 2.56825 18.7567 2.73333C18.7704 2.89206 18.7807 3.05397 18.7875 3.21905C18.7943 3.37778 18.8012 3.53968 18.808 3.70476V6.90476H17.4237V0.104762H19.3822L22.561 5.2H22.5917C22.5849 5.04127 22.5781 4.88571 22.5712 4.73333C22.5644 4.5746 22.5576 4.41905 22.5507 4.26667C22.5507 4.10794 22.5473 3.95238 22.5405 3.8C22.5336 3.64127 22.5268 3.48254 22.52 3.32381V0.104762H23.9145V6.90476Z" fill="#060D5A"/>
<path d="M31.8354 3.4381C31.8354 4.2 31.6782 4.8381 31.3638 5.35238C31.0493 5.86667 30.5913 6.25397 29.9897 6.51429C29.395 6.7746 28.6772 6.90476 27.8364 6.90476H25.7651V0.104762H28.062C28.8276 0.104762 29.4907 0.231746 30.0512 0.485714C30.6186 0.739683 31.0561 1.11429 31.3638 1.60952C31.6782 2.09841 31.8354 2.70794 31.8354 3.4381ZM30.2256 3.47619C30.2256 2.9746 30.147 2.5619 29.9897 2.2381C29.8325 1.91429 29.5967 1.67619 29.2822 1.52381C28.9746 1.36508 28.5952 1.28571 28.144 1.28571H27.3134V5.71429H27.9799C28.7387 5.71429 29.3027 5.52698 29.6719 5.15238C30.041 4.77778 30.2256 4.21905 30.2256 3.47619Z" fill="#060D5A"/>
<path d="M40 3.49524C40 4.02222 39.9282 4.50159 39.7847 4.93333C39.6479 5.35873 39.436 5.72698 39.1489 6.0381C38.8686 6.34921 38.5063 6.5873 38.062 6.75238C37.6245 6.91746 37.1084 7 36.5137 7C35.9189 7 35.3994 6.91746 34.955 6.75238C34.5175 6.58095 34.1552 6.34286 33.8681 6.0381C33.5879 5.72698 33.3759 5.35556 33.2324 4.92381C33.0957 4.49206 33.0273 4.0127 33.0273 3.48571C33.0273 2.78095 33.1503 2.16825 33.3964 1.64762C33.6494 1.12698 34.0322 0.72381 34.5449 0.438095C35.0644 0.146032 35.7241 0 36.5239 0C37.3169 0 37.9697 0.146032 38.4824 0.438095C38.9951 0.72381 39.3745 1.13016 39.6206 1.65714C39.8735 2.17778 40 2.79048 40 3.49524ZM34.6577 3.49524C34.6577 3.97143 34.7226 4.38095 34.8525 4.72381C34.9824 5.06667 35.1841 5.33016 35.4575 5.51429C35.7309 5.69841 36.083 5.79048 36.5137 5.79048C36.958 5.79048 37.3135 5.69841 37.5801 5.51429C37.8535 5.33016 38.0517 5.06667 38.1748 4.72381C38.3047 4.38095 38.3696 3.97143 38.3696 3.49524C38.3696 2.77778 38.2261 2.21587 37.939 1.80952C37.6518 1.40317 37.1802 1.2 36.5239 1.2C36.0864 1.2 35.7309 1.29206 35.4575 1.47619C35.1841 1.66032 34.9824 1.92381 34.8525 2.26667C34.7226 2.60952 34.6577 3.01905 34.6577 3.49524Z" fill="#060D5A"/>
</svg>
